<?xml version="1.0" encoding="utf-8"?>
<!-- Generator: Adobe Illustrator 25.0.1, SVG Export Plug-In . SVG Version: 6.00 Build 0)  -->
<svg version="1.1" id="Layer_1" xmlns="http://www.w3.org/2000/svg" xmlns:xlink="http://www.w3.org/1999/xlink" x="0px" y="0px"
	 viewBox="0 0 1600 285.86" style="enable-background:new 0 0 1600 285.86;" xml:space="preserve">
<style type="text/css">
	.st0{fill:url(#SVGID_1_);}
	.st1{opacity:0.16;clip-path:url(#SVGID_5_);fill:#FFFFFF;}
	.st2{opacity:0.1;fill:#FFFFFF;}
	.st3{opacity:0.16;fill:#FFFFFF;}
	.st4{opacity:0.12;clip-path:url(#SVGID_7_);fill:#FFFFFF;}
</style>
<linearGradient id="SVGID_1_" gradientUnits="userSpaceOnUse" x1="-1.2384" y1="143.678" x2="1600.2766" y2="143.678">
	<stop  offset="0" style="stop-color:#0E1832"/>
	<stop  offset="1" style="stop-color:#00B6BB"/>
	<stop  offset="1" style="stop-color:#000000"/>
</linearGradient>
<rect x="-1.24" y="-0.17" class="st0" width="1601.52" height="287.7"/>
<g>
	<defs>
		<rect id="SVGID_2_" x="-9.29" y="-0.15" width="1600" height="287.68"/>
	</defs>
	<clipPath id="SVGID_3_">
		<use xlink:href="#SVGID_2_"  style="overflow:visible;"/>
	</clipPath>
</g>
<g>
	<defs>
		<rect id="SVGID_4_" x="-1.24" y="0.02" width="1601.42" height="287.51"/>
	</defs>
	<clipPath id="SVGID_5_">
		<use xlink:href="#SVGID_4_"  style="overflow:visible;"/>
	</clipPath>
	<path class="st1" d="M1826.91,167.83h-58.6h-36.92h-123.06V94.51h29.1c-1.84-7.4-2.92-15.05-2.92-22.85
		c0-34.26,18.54-66.15,48.43-83.28c29.89-17.07,66.99-17.07,96.87,0c7.47,4.29,14.25,9.48,20.17,15.38l9.25,10.16l-52.42,51.64
		l-9.28-10.13c-1.3-1.35-2.89-2.52-4.68-3.55c-7.03-4.06-15.89-4.03-22.99,0.03c-7.1,4.06-11.51,11.62-11.51,19.76
		c0,8.13,4.42,15.69,11.51,19.76c3.51,2.03,7.5,3.09,11.51,3.09h36.92h58.6V167.83z M1753.23-225.47
		c-173.66-24.15-331.72,106.7-350.98,280.71C1383,229.25,1509.13,386.47,1683.4,405.69c12.1,1.34,31.92,2.36,48.91,1.65l16.72-0.71
		l-1.01,192.92C2099.03,400.49,2158.94-169.05,1753.23-225.47"/>
	<path class="st1" d="M200.47,189.61h-52.02h-32.78H6.42v-65.09h25.83c-1.63-6.57-2.59-13.36-2.59-20.28
		c0-30.41,16.46-58.73,42.99-73.93c26.53-15.15,59.47-15.15,85.99,0c6.63,3.81,12.65,8.41,17.9,13.65l8.21,9.02l-46.53,45.84
		l-8.23-9c-1.15-1.19-2.56-2.24-4.15-3.15c-6.25-3.61-14.11-3.58-20.41,0.03c-6.3,3.61-10.22,10.32-10.22,17.54
		c0,7.22,3.92,13.93,10.22,17.54c3.12,1.8,6.66,2.74,10.22,2.74h32.78h52.02V189.61z M135.06-159.53
		C-19.1-180.97-159.42-64.81-176.51,89.66C-193.6,244.14-81.64,383.71,73.07,400.77c10.74,1.19,28.33,2.1,43.42,1.47l14.85-0.63
		l-0.89,171.26C442.04,396.15,495.22-109.45,135.06-159.53"/>
</g>
<path class="st2" d="M421.02,140.45h-10.68h-6.73h-22.42v-13.38h5.3c-0.34-1.35-0.53-2.75-0.53-4.17c0-6.25,3.38-12.07,8.83-15.2
	c5.45-3.12,12.21-3.12,17.65,0c1.36,0.78,2.6,1.73,3.68,2.81l1.69,1.85l-9.55,9.42l-1.69-1.85c-0.24-0.25-0.53-0.46-0.85-0.65
	c-1.28-0.74-2.9-0.74-4.19,0.01c-1.29,0.74-2.1,2.12-2.1,3.61c0,1.48,0.8,2.86,2.1,3.61c0.64,0.37,1.37,0.56,2.1,0.56h6.73h10.68
	V140.45z M407.59,68.67c-31.65-4.41-60.45,19.47-63.96,51.23c-3.51,31.76,19.48,60.45,51.23,63.96c2.2,0.24,5.82,0.43,8.91,0.3
	l3.05-0.13l-0.18,35.21C470.61,182.91,481.52,78.96,407.59,68.67"/>
<path class="st2" d="M1225,126h-11.2h-7.06h-23.51v-14.03h5.56c-0.35-1.42-0.56-2.88-0.56-4.37c0-6.56,3.54-12.66,9.25-15.94
	c5.71-3.27,12.8-3.27,18.51,0c1.43,0.82,2.72,1.81,3.85,2.94l1.77,1.94l-10.02,9.88l-1.77-1.94c-0.25-0.26-0.55-0.48-0.89-0.68
	c-1.34-0.78-3.04-0.77-4.39,0.01c-1.36,0.78-2.2,2.22-2.2,3.78c0,1.56,0.84,3,2.2,3.78c0.67,0.39,1.43,0.59,2.2,0.59h7.06h11.2V126z
	 M1210.93,50.73c-33.18-4.62-63.39,20.42-67.07,53.72c-3.68,33.3,20.42,63.39,53.72,67.07c2.31,0.26,6.1,0.45,9.34,0.32l3.2-0.14
	l-0.19,36.92C1277,170.52,1288.45,61.53,1210.93,50.73"/>
<path class="st3" d="M572.38,151.89h-5.35h-3.37h-11.24v-6.71h2.66c-0.17-0.68-0.27-1.38-0.27-2.09c0-3.13,1.69-6.05,4.42-7.62
	c2.73-1.56,6.12-1.56,8.85,0c0.68,0.39,1.3,0.87,1.84,1.41l0.85,0.93l-4.79,4.72l-0.85-0.93c-0.12-0.12-0.26-0.23-0.43-0.33
	c-0.64-0.37-1.45-0.37-2.1,0c-0.65,0.37-1.05,1.06-1.05,1.81c0,0.74,0.4,1.44,1.05,1.81c0.32,0.19,0.68,0.28,1.05,0.28h3.37h5.35
	V151.89z M565.65,115.91c-15.86-2.21-30.3,9.76-32.06,25.68c-1.76,15.92,9.76,30.3,25.68,32.06c1.11,0.12,2.92,0.22,4.47,0.15
	l1.53-0.06l-0.09,17.65C597.23,173.17,602.7,121.07,565.65,115.91"/>
<g>
	<defs>
		<rect id="SVGID_6_" x="-1.24" y="-0.17" width="1601.52" height="287.7"/>
	</defs>
	<clipPath id="SVGID_7_">
		<use xlink:href="#SVGID_6_"  style="overflow:visible;"/>
	</clipPath>
	<path class="st4" d="M932.08,196.04h-28.79h-18.14H824.7v-36.07H839c-0.9-3.64-1.43-7.4-1.43-11.24c0-16.85,9.11-32.55,23.79-40.97
		c14.68-8.4,32.91-8.4,47.59,0c3.67,2.11,7,4.66,9.91,7.57l4.55,5l-25.75,25.4l-4.56-4.99c-0.64-0.66-1.42-1.24-2.3-1.75
		c-3.46-2-7.81-1.99-11.29,0.02c-3.49,2-5.66,5.72-5.66,9.72c0,4,2.17,7.72,5.66,9.72c1.73,1,3.68,1.52,5.65,1.52h18.14h28.79
		V196.04z M895.89,2.54c-85.31-11.88-162.96,52.5-172.42,138.11c-9.46,85.61,52.5,162.97,138.12,172.42
		c5.94,0.66,15.68,1.16,24.03,0.81l8.22-0.35l-0.49,94.92C1065.77,310.51,1095.2,30.3,895.89,2.54"/>
</g>
</svg>
